<svg width="11" height="16" viewBox="0 0 11 16" fill="none" xmlns="http://www.w3.org/2000/svg">
<path d="M8.83333 0H8H2.66667H1.83333C0.822 0 0 0.822 0 1.83333V14.1667C0 15.178 0.822 16 1.83333 16H8.83333C9.84467 16 10.6667 15.178 10.6667 14.1667V1.83333C10.6667 0.822 9.84467 0 8.83333 0ZM9.33333 14C9.33333 14.368 9.03467 14.6667 8.66667 14.6667H2C1.632 14.6667 1.33333 14.368 1.33333 14V2C1.33333 1.632 1.632 1.33333 2 1.33333H2.33333C2.70133 1.33333 3 1.632 3 2C3 2.368 3.29867 2.66667 3.66667 2.66667H7C7.368 2.66667 7.66667 2.368 7.66667 2C7.66667 1.632 7.96533 1.33333 8.33333 1.33333H8.66667C9.03467 1.33333 9.33333 1.632 9.33333 2V14Z" fill="#6D698C"/>
</svg>
