<svg width="80" height="63" viewBox="0 0 80 63" fill="none" xmlns="http://www.w3.org/2000/svg">
<path d="M0 0V62.5198H80V0H0ZM21.2245 57.6219H4.89796V39.6627H21.2245V57.6219ZM21.2245 34.7647H4.89796V16.8055H21.2245V34.7647ZM34.6939 57.6219H26.1224V51.0913H34.6939V57.6219ZM34.6939 46.1933H26.1224V39.6627H34.6939V46.1933ZM34.6939 34.7647H26.1224V28.2341H34.6939V34.7647ZM34.6939 23.3362H26.1224V16.8055H34.6939V23.3362ZM48.1633 57.6219H39.5918V51.0913H48.1633V57.6219ZM48.1633 46.1933H39.5918V39.6627H48.1633V46.1933ZM48.1633 34.7647H39.5918V28.2341H48.1633V34.7647ZM48.1633 23.3362H39.5918V16.8055H48.1633V23.3362ZM61.6327 57.6219H53.0612V51.0913H61.6327V57.6219ZM61.6327 46.1933H53.0612V39.6627H61.6327V46.1933ZM61.6327 34.7647H53.0612V28.2341H61.6327V34.7647ZM61.6327 23.3362H53.0612V16.8055H61.6327V23.3362ZM75.102 57.6219H66.5306V51.0913H75.102V57.6219ZM75.102 46.1933H66.5306V39.6627H75.102V46.1933ZM75.102 34.7647H66.5306V28.2341H75.102V34.7647ZM75.102 23.3362H66.5306V16.8055H75.102V23.3362ZM75.102 11.9076H4.89796V4.89796H75.102V11.9076Z" fill="#FFCF3C"/>
</svg>
